<?xml version="1.0" encoding="utf-8"?>
<!-- Generator: Adobe Illustrator 16.0.3, SVG Export Plug-In . SVG Version: 6.00 Build 0)  -->
<!DOCTYPE svg PUBLIC "-//W3C//DTD SVG 1.1//EN" "http://www.w3.org/Graphics/SVG/1.1/DTD/svg11.dtd">
<svg version="1.1" id="Layer_1" xmlns="http://www.w3.org/2000/svg" xmlns:xlink="http://www.w3.org/1999/xlink" x="0px" y="0px"
	 width="35px" height="35px" viewBox="0 0 35 35" enable-background="new 0 0 35 35" xml:space="preserve">
<g>
	
		<path fill-rule="evenodd" clip-rule="evenodd" fill="none" stroke="#A4A6AC" stroke-linecap="round" stroke-linejoin="round" stroke-miterlimit="10" d="
		M1.5,18C1.5,8.89,8.89,1.5,18,1.5S34.5,8.89,34.5,18S27.11,34.5,18,34.5S1.5,27.11,1.5,18z"/>
	<path fill="#A4A6AC" d="M13.94,10.09c-0.29-0.29-0.29-0.75,0-1.04c0.28-0.29,0.74-0.29,1.03,0l8.32,8.43
		c0.28,0.29,0.28,0.75,0,1.04l-8.32,8.43c-0.29,0.29-0.75,0.29-1.03,0c-0.29-0.29-0.29-0.75,0-1.04L21.52,18L13.94,10.09z"/>
</g>
</svg>
