<?xml version="1.0" encoding="utf-8"?>
<!-- Generator: Adobe Illustrator 16.0.3, SVG Export Plug-In . SVG Version: 6.00 Build 0)  -->
<!DOCTYPE svg PUBLIC "-//W3C//DTD SVG 1.1//EN" "http://www.w3.org/Graphics/SVG/1.1/DTD/svg11.dtd">
<svg version="1.1" id="Layer_1" xmlns="http://www.w3.org/2000/svg" xmlns:xlink="http://www.w3.org/1999/xlink" x="0px" y="0px"
	 width="16px" height="16px" viewBox="0 0 16 16" enable-background="new 0 0 16 16" xml:space="preserve">
<path fill-rule="evenodd" clip-rule="evenodd" fill="#BCBCBB" d="M8,11.48C6.08,11.48,4.52,9.92,4.52,8S6.08,4.52,8,4.52
	S11.48,6.08,11.48,8S9.92,11.48,8,11.48z M14.46,8c0-1,0.62-1.79,1.54-2.33c-0.17-0.55-0.391-1.09-0.66-1.59
	c-1.04,0.27-1.88-0.13-2.58-0.84c-0.71-0.7-0.92-1.54-0.65-2.58c-0.5-0.27-1.039-0.49-1.59-0.66C9.98,0.93,9,1.54,8,1.54
	S6.02,0.93,5.48,0C4.93,0.17,4.39,0.39,3.89,0.66C4.16,1.7,3.95,2.54,3.24,3.24C2.54,3.95,1.7,4.35,0.66,4.08
	C0.39,4.58,0.17,5.12,0,5.67C0.92,6.21,1.54,7,1.54,8S0.92,9.98,0,10.52c0.17,0.551,0.39,1.09,0.66,1.59
	c1.04-0.27,1.88-0.06,2.58,0.65c0.71,0.7,0.92,1.54,0.65,2.58c0.5,0.27,1.04,0.49,1.59,0.66C6.02,15.08,7,14.46,8,14.46
	s1.98,0.62,2.52,1.54c0.551-0.17,1.09-0.391,1.59-0.66c-0.27-1.04-0.06-1.88,0.65-2.58c0.7-0.71,1.54-1.109,2.58-0.84
	c0.27-0.5,0.49-1.04,0.66-1.59C15.08,9.779,14.46,9,14.46,8z"/>
</svg>
