<?xml version="1.0" encoding="utf-8"?>
<!-- Generator: Adobe Illustrator 17.1.0, SVG Export Plug-In . SVG Version: 6.00 Build 0)  -->
<!DOCTYPE svg PUBLIC "-//W3C//DTD SVG 1.1//EN" "http://www.w3.org/Graphics/SVG/1.1/DTD/svg11.dtd">
<svg version="1.1" id="Layer_1" xmlns="http://www.w3.org/2000/svg" xmlns:xlink="http://www.w3.org/1999/xlink" x="0px" y="0px"
	 viewBox="0 0 35 35" enable-background="new 0 0 35 35" xml:space="preserve">
<path fill="#DE4326" d="M17.5,0C7.835,0,0,7.835,0,17.5C0,27.165,7.835,35,17.5,35C27.165,35,35,27.165,35,17.5
	C35,7.835,27.165,0,17.5,0z M17.46,29.8c-1.294,0-2.343-1.049-2.343-2.343c0-1.294,1.049-2.343,2.343-2.343
	c1.294,0,2.343,1.049,2.343,2.343C19.803,28.751,18.754,29.8,17.46,29.8z M19.571,21.206c0,0.874-0.715,1.583-1.598,1.583h-1.026
	c-0.883,0-1.598-0.709-1.598-1.583L13.955,6.664c0-0.874,0.715-1.583,1.598-1.583h3.814c0.883,0,1.598,0.709,1.598,1.583
	L19.571,21.206z"/>
</svg>
