<?xml version="1.0" encoding="utf-8"?>
<!-- Generator: Adobe Illustrator 17.1.0, SVG Export Plug-In . SVG Version: 6.00 Build 0)  -->
<!DOCTYPE svg PUBLIC "-//W3C//DTD SVG 1.1//EN" "http://www.w3.org/Graphics/SVG/1.1/DTD/svg11.dtd">
<svg version="1.1" id="Layer_1" xmlns="http://www.w3.org/2000/svg" xmlns:xlink="http://www.w3.org/1999/xlink" x="0px" y="0px"
	 viewBox="0 0 410.975 499.042" enable-background="new 0 0 410.975 499.042" xml:space="preserve">
<g>
	<path fill="#B2B2B2" d="M375.75,176.132h-52.84v-41.097C322.911,49.984,283.73,0,205.488,0C127.244,0,88.065,49.984,88.065,135.035
		v41.097h-58.71C13.142,176.132,0,195.145,0,211.359v228.972c0,16.147,12.573,33.414,27.939,38.369l35.124,11.328
		c15.365,4.96,41.148,9.014,57.293,9.014h170.262c16.146,0,41.93-4.054,57.295-9.014l35.123-11.328
		c15.367-4.955,27.939-22.223,27.939-38.369V211.359C410.975,195.145,391.962,176.132,375.75,176.132z M146.777,123.293
		c0-42.416,23.403-64.582,58.711-64.582c35.306,0,58.711,22.166,58.711,64.582v52.84H146.777V123.293z"/>
</g>
</svg>
