<?xml version="1.0" encoding="utf-8"?>
<!-- Generator: Adobe Illustrator 17.1.0, SVG Export Plug-In . SVG Version: 6.00 Build 0)  -->
<!DOCTYPE svg PUBLIC "-//W3C//DTD SVG 1.1//EN" "http://www.w3.org/Graphics/SVG/1.1/DTD/svg11.dtd">
<svg version="1.1" id="Layer_1" xmlns="http://www.w3.org/2000/svg" xmlns:xlink="http://www.w3.org/1999/xlink" x="0px" y="0px"
	 viewBox="0 0 24 24" enable-background="new 0 0 24 24" xml:space="preserve">
<g opacity="0.7">
	<path fill="#157EBA" d="M11.839,0.001C5.213,0.09-0.087,5.534,0.001,12.162C0.09,18.786,5.534,24.087,12.16,23.999
		c6.626-0.089,11.927-5.534,11.838-12.16C23.91,5.214,18.466-0.087,11.839,0.001z M13.17,4c1.22,0,1.58,0.708,1.58,1.517
		c0,1.011-0.81,1.946-2.19,1.946c-1.156,0-1.705-0.582-1.673-1.542C10.886,5.112,11.564,4,13.17,4z M10.043,19.5
		c-0.834,0-1.444-0.506-0.861-2.731l0.956-3.946c0.166-0.632,0.194-0.885,0-0.885c-0.25,0-1.332,0.437-1.971,0.867L7.75,12.123
		c2.028-1.693,4.36-2.687,5.359-2.687c0.834,0,0.972,0.986,0.556,2.503l-1.095,4.148c-0.194,0.733-0.111,0.986,0.083,0.986
		c0.251,0,1.07-0.304,1.875-0.936L15,16.768C13.028,18.74,10.876,19.5,10.043,19.5z"/>
</g>
</svg>
