<?xml version="1.0" encoding="windows-1252"?>
<!-- Generator: Adobe Illustrator 16.0.4, SVG Export Plug-In . SVG Version: 6.00 Build 0)  -->
<!DOCTYPE svg PUBLIC "-//W3C//DTD SVG 1.1//EN" "http://www.w3.org/Graphics/SVG/1.1/DTD/svg11.dtd">
<svg version="1.1" id="Layer_1" xmlns="http://www.w3.org/2000/svg" xmlns:xlink="http://www.w3.org/1999/xlink" x="0px" y="0px" width="600px" height="600px" viewBox="0 0 600 600" style="enable-background:new 0 0 600 600;" xml:space="preserve">
<g>
	<path style="fill:#5E5F5F;" d="M539.637,473.653L419.612,353.629c18.102-29.732,28.524-64.646,28.524-102.004   c0-108.514-94.033-202.543-202.569-202.543c-108.511,0-196.489,87.978-196.489,196.501c0,108.524,94.032,202.544,202.543,202.544   c36.079,0,69.875-9.771,98.932-26.743l120.67,120.677c11.812,11.811,30.955,11.811,42.755,0l29.938-29.92   C555.729,500.322,551.448,485.459,539.637,473.653z M109.551,245.583c0-75.137,60.905-136.042,136.017-136.042   c75.149,0,142.097,66.948,142.097,142.084c0,75.131-60.907,136.043-136.042,136.043   C176.499,387.668,109.551,320.72,109.551,245.583z"/>
</g>
</svg>