<?xml version="1.0" encoding="utf-8"?>
<!-- Generator: Adobe Illustrator 17.1.0, SVG Export Plug-In . SVG Version: 6.00 Build 0)  -->
<!DOCTYPE svg PUBLIC "-//W3C//DTD SVG 1.1//EN" "http://www.w3.org/Graphics/SVG/1.1/DTD/svg11.dtd">
<svg version="1.1" id="Layer_1" xmlns="http://www.w3.org/2000/svg" xmlns:xlink="http://www.w3.org/1999/xlink" x="0px" y="0px"
	 viewBox="0 0 498.459 343.598" enable-background="new 0 0 498.459 343.598" xml:space="preserve">
<path fill-rule="evenodd" clip-rule="evenodd" fill="#B2B2B2" d="M474.262,0H24.197C10.833,0,0,10.833,0,24.197v295.204
	c0,13.363,10.833,24.197,24.197,24.197h450.064c13.363,0,24.197-10.834,24.197-24.197V24.197C498.459,10.833,487.625,0,474.262,0z
	 M470.786,86.499l-120.371,93.739c0,0,80.94,68.818,85.544,73.072c5.016,4.632,10.789,17.776,0,27.496
	c-12.184,10.977-24.441,0-24.441,0l-90.634-76.658c0,0-40.943,32.101-59.339,46.245c-5.04,3.875-15.046,4.177-21.212-0.95
	c-3.741-3.109-58.29-45.569-58.29-45.569s-85.425,72.401-91.12,77.19c-6.097,5.126-16.943,7.071-24.942-1.174
	c-9.897-10.199-3.654-22.732,0.695-26.426c3.85-3.272,85.876-72.663,85.876-72.663S37.818,91.504,33.281,87.719
	c-5.384-4.492-10.079-14.983-2.917-24.94c9.271-12.887,24.618-4.999,24.618-4.999l196.705,154.026
	c0,0,191.298-150.054,195.576-153.415c4.278-3.361,17.139-6.411,25.663,4.889C481.544,74.706,470.786,86.499,470.786,86.499z"/>
</svg>
