<?xml version="1.0" encoding="utf-8"?>
<!-- Generator: Adobe Illustrator 17.1.0, SVG Export Plug-In . SVG Version: 6.00 Build 0)  -->
<!DOCTYPE svg PUBLIC "-//W3C//DTD SVG 1.1//EN" "http://www.w3.org/Graphics/SVG/1.1/DTD/svg11.dtd">
<svg version="1.1" id="_x32__color" xmlns="http://www.w3.org/2000/svg" xmlns:xlink="http://www.w3.org/1999/xlink" x="0px"
	 y="0px" viewBox="0 0 310.233 51.007" enable-background="new 0 0 310.233 51.007" xml:space="preserve">
<g>
	<path fill="#909090" d="M310.233,47.43c0,1.891-1.52,3.386-3.454,3.386c-1.924,0-3.467-1.495-3.467-3.386
		c0-1.887,1.543-3.366,3.492-3.366C308.713,44.063,310.233,45.543,310.233,47.43z M304.173,47.43c0,1.492,1.132,2.69,2.631,2.69
		c1.456,0.017,2.567-1.198,2.567-2.673c0-1.495-1.111-2.707-2.605-2.707C305.305,44.74,304.173,45.952,304.173,47.43z
		 M306.253,49.178h-0.783v-3.367c0.308-0.043,0.739-0.104,1.296-0.104c0.633,0,0.92,0.104,1.147,0.269
		c0.201,0.137,0.347,0.385,0.347,0.715c0,0.41-0.308,0.68-0.694,0.801v0.045c0.325,0.096,0.487,0.369,0.592,0.818
		c0.103,0.51,0.184,0.697,0.248,0.824h-0.822c-0.102-0.127-0.167-0.415-0.266-0.824c-0.062-0.347-0.268-0.513-0.697-0.513h-0.367
		V49.178z M306.269,47.285h0.367c0.437,0,0.78-0.145,0.78-0.492c0-0.308-0.226-0.51-0.717-0.51c-0.205,0-0.349,0.012-0.431,0.037
		V47.285z"/>
</g>
<g>
	<path fill="#909090" d="M245.297,17.9c-10.096,0-14.797,5.257-14.797,16.543c0,11.244,4.679,16.483,14.725,16.483
		c10.096,0,14.798-5.258,14.798-16.548C260.023,23.137,255.344,17.9,245.297,17.9z M245.297,47.907
		c-5.238,0-11.256-1.537-11.256-13.529c0-9.48,3.346-13.526,11.184-13.526c5.239,0,11.251,1.547,11.251,13.592
		C256.476,43.88,253.134,47.907,245.297,47.907z"/>
	<path fill="#909090" d="M216.143,32.425c-6.846-0.857-9.015-1.338-9.015-5.718c0-3.665,1.377-5.65,8.628-5.65
		c2.827,0,7.064,0.438,9.106,0.84l-0.746-2.938c-2.561-0.551-5.492-0.851-8.29-0.851c-10.727,0-12.173,4.417-12.173,8.738
		c0,6.399,2.424,7.428,11.969,8.733c5.69,0.811,8.205,1.352,8.205,5.726c0,5.129-2.048,6.531-9.524,6.531
		c-3.229,0-7.361-0.733-9.673-1.366l0.814,3.272c2.717,0.641,6.162,1.049,8.858,1.049c9.894,0,13.066-2.322,13.066-9.555
		C227.37,34.99,224.567,33.558,216.143,32.425z"/>
	<path fill="#909090" d="M270.089,19.054V10.96c0-4.684,0.983-6.26,7.789-7.981L277.181,0c-8.955,2.118-10.567,4.698-10.567,10.754
		v8.3h-5.979l0.768,3.021h5.212v28.036h3.476V22.075h8.995l-0.769-3.021H270.089z"/>
	<path fill="#909090" d="M293.3,47.295c-2.921,0-3.166-2.558-3.166-5.179V22.075h7.222l-0.77-3.021h-6.452V7.078l-3.403,0.946
		v11.029h-5.441l0.767,3.021h4.675v20.516c0,5.361,1.912,7.86,6.018,7.86c1.886,0,3.522-0.183,6.42-0.592l-0.313-3.088
		C296.49,47.154,294.974,47.295,293.3,47.295z"/>
</g>
<g>
	<path fill="#6BB327" d="M29.457,18.049c-4.551,0-9.382,2.267-11.242,3.239L17.65,18.66h-4.984v31.616h6.645V26.92
		c2.187-1.043,6.333-2.512,9.339-2.512c3.252,0,3.955,0.732,3.955,4.122v21.746h6.71v-22.53
		C39.315,21.312,35.999,18.049,29.457,18.049z"/>
	<path fill="#6BB327" d="M54.037,18.843v-5.459c0-3.225,0-4.091,6.514-5.632l0.828-0.194l-1.438-6.139L59.113,1.6
		C49.972,3.607,47.33,6.21,47.33,13.197v5.645h-5.547l1.602,6.302h3.945v25.132h6.708V25.145h9.056v-0.321l-1.506-5.981H54.037z"/>
	<path fill="#6BB327" d="M86.453,42.017c-2.187,1.04-6.333,2.511-9.34,2.511c-3.253,0-3.956-0.732-3.956-4.122V18.66h-6.71v22.531
		c0,6.434,3.317,9.694,9.858,9.694c4.557,0,9.385-2.266,11.243-3.236l0.565,2.627h4.984V18.66h-6.645V42.017z"/>
	<polygon fill="#6BB327" points="0,50.276 6.711,50.276 6.711,5.28 0,7.202 	"/>
	<polygon fill="#6BB327" points="126.552,16.57 133.263,14.677 133.263,7.054 126.552,8.845 	"/>
	<path fill="#6BB327" d="M152.175,17.809c-10.135,0-15.061,5.438-15.061,16.627c0,11.148,4.906,16.57,14.997,16.57
		c10.137,0,15.063-5.438,15.063-16.629C167.175,23.229,162.269,17.809,152.175,17.809z M152.175,44.709
		c-4.193,0-8.289-0.798-8.289-10.331c0-8.641,3.016-10.332,8.226-10.332c4.197,0,8.294,0.803,8.294,10.391
		C160.406,43.027,157.388,44.709,152.175,44.709z"/>
	<path fill="#6BB327" d="M187.426,18.049c-4.55,0-9.381,2.267-11.242,3.239l-0.567-2.628h-4.984v31.616h6.645V26.92
		c1.932-0.917,6.116-2.512,9.343-2.512c3.253,0,3.956,0.732,3.956,4.122v21.746h6.708v-22.53
		C197.284,21.312,193.967,18.049,187.426,18.049z"/>
	<polygon fill="#6BB327" points="126.552,50.276 133.263,50.276 133.263,18.089 126.552,20.01 	"/>
	<path fill="#6BB327" d="M110.672,30.966c-6.521-0.817-6.521-1.157-6.521-3.349c0-1.897,0-3.267,5.938-3.267
		c2.61,0,6.76,0.448,8.177,0.794l2.519,0.834l-1.729-6.806l-0.188-0.046c-2.584-0.644-5.763-1.016-8.719-1.016
		c-8.668,0-12.707,3.062-12.707,9.634c0,7.574,4.211,8.504,12.281,9.607c5.592,0.795,5.806,1.308,5.806,3.354
		c0,2.702,0,4.061-6.742,4.061c-3.083,0-7.467-0.854-9.021-1.419l-2.178-0.741l1.771,7.136l0.184,0.049
		c2.654,0.728,6.368,1.215,9.244,1.215c8.342,0,13.51-1.731,13.51-10.361C122.298,33.743,118.55,32.023,110.672,30.966z"/>
</g>
</svg>
