<?xml version="1.0" encoding="utf-8"?>
<!-- Generator: Adobe Illustrator 17.1.0, SVG Export Plug-In . SVG Version: 6.00 Build 0)  -->
<!DOCTYPE svg PUBLIC "-//W3C//DTD SVG 1.1//EN" "http://www.w3.org/Graphics/SVG/1.1/DTD/svg11.dtd">
<svg version="1.1" id="Layer_1" xmlns="http://www.w3.org/2000/svg" xmlns:xlink="http://www.w3.org/1999/xlink" x="0px" y="0px"
	 viewBox="0 0 123.634 62.211" enable-background="new 0 0 123.634 62.211" xml:space="preserve">
<g>
	<path fill="#157EBA" d="M79.932,60.366V29.282c0-1.068,0.972-1.603,2.914-1.603h1.7c1.942,0,2.914,0.534,2.914,1.603v31.084
		c0,1.068-0.972,1.602-2.914,1.602h-1.7C80.904,61.967,79.932,61.434,79.932,60.366z"/>
	<path fill="#157EBA" d="M91.977,59.879V29.768c0-1.295,0.647-1.943,1.942-1.943h10.88c5.019,0,8.863,1.465,11.534,4.396
		c2.672,2.931,4.008,7.132,4.008,12.604c0,5.472-1.336,9.673-4.008,12.603c-2.671,2.931-6.516,4.396-11.534,4.396h-10.88
		C92.624,61.823,91.977,61.174,91.977,59.879z M99.505,55.46h5.294c2.59,0,4.548-0.906,5.876-2.72
		c1.328-1.813,1.992-4.452,1.992-7.917c0-3.464-0.664-6.103-1.992-7.917c-1.328-1.812-3.286-2.72-5.876-2.72h-5.294V55.46z"/>
</g>
<g>
	<g>
		<path fill="#434042" d="M97.289,7.098c-4.004,0-5.869,2.084-5.869,6.564c0,4.457,1.857,6.535,5.838,6.535
			c4.006,0,5.871-2.088,5.871-6.564C103.128,9.172,101.273,7.098,97.289,7.098z M97.289,19.002c-2.078,0-4.465-0.611-4.465-5.369
			c0-3.76,1.328-5.363,4.434-5.363c2.08,0,4.463,0.611,4.463,5.393C101.72,17.404,100.398,19.002,97.289,19.002z"/>
		<path fill="#434042" d="M85.726,12.857c-2.715-0.336-3.576-0.531-3.576-2.268c0-1.453,0.545-2.24,3.422-2.24
			c1.121,0,2.801,0.174,3.612,0.334L88.89,7.519c-1.018-0.221-2.18-0.338-3.294-0.338c-4.25,0-4.824,1.752-4.824,3.467
			c0,2.533,0.961,2.941,4.744,3.461c2.258,0.322,3.256,0.537,3.256,2.271c0,2.035-0.811,2.59-3.78,2.59
			c-1.279,0-2.916-0.289-3.836-0.539l0.324,1.295c1.078,0.254,2.445,0.418,3.512,0.418c3.926,0,5.184-0.922,5.184-3.791
			C90.177,13.877,89.066,13.309,85.726,12.857z"/>
		<path fill="#434042" d="M107.123,7.555V4.344c0-1.855,0.389-2.482,3.09-3.164L109.933,0c-3.551,0.84-4.191,1.861-4.191,4.266
			v3.289h-2.371l0.305,1.201h2.066v11.119h1.381V8.756h3.566l-0.307-1.201H107.123z"/>
		<path fill="#434042" d="M116.328,18.758c-1.156,0-1.258-1.016-1.258-2.055V8.756h2.865l-0.305-1.201h-2.561V2.809l-1.348,0.375
			v4.371h-2.158l0.303,1.201h1.856v8.133c0,2.127,0.758,3.121,2.387,3.121c0.746,0,1.396-0.074,2.547-0.234l-0.125-1.227
			C117.593,18.705,116.99,18.758,116.328,18.758z"/>
	</g>
	<g>
		<path fill="#434042" d="M11.682,7.156c-1.805,0-3.721,0.9-4.458,1.285L7,7.4H5.02v12.537h2.638v-9.264
			c0.865-0.412,2.51-0.992,3.705-0.992c1.289,0,1.568,0.291,1.568,1.633v8.623h2.66v-8.934C15.592,8.451,14.275,7.156,11.682,7.156z
			"/>
		<path fill="#434042" d="M21.43,7.473V5.307c0-1.277,0-1.623,2.582-2.23l0.33-0.08l-0.568-2.434l-0.328,0.07
			c-3.629,0.795-4.676,1.828-4.676,4.602v2.238h-2.201l0.637,2.5h1.564v9.965h2.66V9.973h3.592V9.844l-0.597-2.371H21.43z"/>
		<path fill="#434042" d="M34.285,16.666c-0.865,0.41-2.51,0.994-3.701,0.994c-1.292,0-1.57-0.293-1.57-1.637V7.4h-2.66v8.938
			c0,2.551,1.316,3.84,3.91,3.84c1.807,0,3.723-0.898,4.457-1.281l0.226,1.041h1.977V7.4h-2.639V16.666z"/>
		<polygon fill="#434042" points="0,19.938 2.66,19.938 2.66,2.092 0,2.855 		"/>
		<polygon fill="#434042" points="50.193,6.57 52.852,5.822 52.852,2.797 50.193,3.508 		"/>
		<path fill="#434042" d="M60.354,7.062c-4.02,0-5.973,2.154-5.973,6.592c0,4.426,1.944,6.574,5.948,6.574
			c4.023,0,5.972-2.154,5.972-6.596C66.302,9.213,64.358,7.062,60.354,7.062z M60.354,17.732c-1.664,0-3.289-0.316-3.289-4.1
			c0-3.426,1.195-4.098,3.265-4.098c1.663,0,3.288,0.32,3.288,4.119C63.618,17.065,62.423,17.732,60.354,17.732z"/>
		<path fill="#434042" d="M74.333,7.156c-1.805,0-3.721,0.9-4.455,1.285L69.653,7.4h-1.98v12.537h2.637v-9.264
			c0.766-0.361,2.426-0.992,3.705-0.992c1.291,0,1.568,0.291,1.568,1.633v8.623h2.662v-8.934
			C78.245,8.451,76.931,7.156,74.333,7.156z"/>
		<polygon fill="#434042" points="50.193,19.938 52.852,19.938 52.852,7.172 50.193,7.938 		"/>
		<path fill="#434042" d="M43.894,12.279c-2.586-0.322-2.586-0.455-2.586-1.328c0-0.752,0-1.295,2.357-1.295
			c1.033,0,2.68,0.178,3.24,0.316l0.998,0.328l-0.686-2.697l-0.072-0.019c-1.027-0.254-2.286-0.4-3.459-0.4
			c-3.438,0-5.04,1.217-5.04,3.816c0,3.008,1.672,3.375,4.87,3.816c2.221,0.312,2.303,0.518,2.303,1.328
			c0,1.068,0,1.609-2.674,1.609c-1.222,0-2.959-0.338-3.578-0.562l-0.863-0.293l0.703,2.828l0.072,0.019
			c1.055,0.289,2.527,0.482,3.666,0.482c3.309,0,5.359-0.684,5.359-4.109C48.504,13.381,47.017,12.701,43.894,12.279z"/>
	</g>
	<g>
		<path fill="#434042" d="M123.634,18.84c0,0.926-0.742,1.656-1.69,1.656c-0.941,0-1.695-0.73-1.695-1.656
			c0-0.922,0.754-1.645,1.707-1.645C122.892,17.195,123.634,17.918,123.634,18.84z M120.669,18.84c0,0.73,0.555,1.316,1.287,1.316
			c0.713,0.008,1.256-0.586,1.256-1.307c0-0.732-0.543-1.326-1.273-1.326C121.224,17.523,120.669,18.117,120.669,18.84z
			 M121.689,19.693h-0.383v-1.645c0.146-0.021,0.359-0.053,0.633-0.053c0.309,0,0.447,0.053,0.559,0.133
			c0.102,0.066,0.172,0.188,0.172,0.35c0,0.201-0.15,0.332-0.342,0.391v0.023c0.16,0.045,0.242,0.18,0.291,0.4
			c0.051,0.246,0.09,0.34,0.119,0.4h-0.4c-0.049-0.061-0.082-0.203-0.131-0.4c-0.029-0.17-0.129-0.252-0.34-0.252h-0.178V19.693z
			 M121.695,18.77h0.18c0.213,0,0.381-0.072,0.381-0.242c0-0.148-0.107-0.248-0.35-0.248c-0.102,0-0.172,0.006-0.211,0.018V18.77z"
			/>
	</g>
</g>
<path fill="#66B045" d="M43.638,31.99c5.205-0.688,12.013-2.601,14.308-4.514c2.296,1.913,9.104,3.827,14.307,4.514
	c0,13.39,0.077,20.351-14.307,30.221C43.562,52.341,43.638,45.38,43.638,31.99z"/>
<polygon fill="#FFFFFF" points="51.37,53.655 64.521,45.493 64.521,34.717 51.37,42.879 "/>
</svg>
